#!OML:ASF H:\Punching\Project 1\Capture day 1\Session 1\female.ASF
:FULLY-SPECIFIED
:DEGREES
1909
root -1.16252 14.9306 10.4852 14.5115 31.0377 1.31075
lowerback 0.881982 2.99843 1.54838
upperback -5.99819 3.99425 -2.77981
thorax -6.42993 1.83909 -4.02073
lowerneck -11.4189 -5.36786 0.629336
upperneck 27.2063 -7.48408 -0.282408
head 10.5559 -3.30859 -1.10898
rclavicle 9.4783e-014 -1.59028e-015
rhumerus 5.37754 4.89583 -88.5066
rradius 86.8845
rwrist 7.58807
rhand -46.4993 21.1327
rfingers 7.12502
rthumb -19.2258 -7.93693
lclavicle 9.4783e-014 -1.59028e-015
lhumerus -4.31718 -58.0626 88.1257
lradius 127.451
lwrist -4.317
lhand -25.4773 11.6377
lfingers 7.12502
lthumb 1.05054 41.6148
rfemur -38.6738 -16.4095 13.2007
rtibia 51.8183
rfoot -18.9003 -13.4173
rtoes -7.00122
lfemur -2.00518 -25.7851 2.05005
ltibia 9.54166e-015
lfoot -12.4159 21.1815
ltoes -15.8046
1910
root -1.24519 14.9043 10.5412 14.7487 31.532 1.5049
lowerback 0.909992 3.13486 1.66472
upperback -5.98747 4.17686 -2.92885
thorax -6.4024 1.92086 -4.25309
lowerneck -11.368 -5.52902 0.563174
upperneck 27.3906 -7.70874 -0.226245
head 10.6191 -3.4039 -1.10744
rclavicle 3.75455e-014 2.18663e-014
rhumerus 7.00049 5.09547 -89.3682
rradius 84.5069
rwrist 8.71961
rhand -46.7962 21.0901
rfingers 7.12502
rthumb -19.5113 -7.95089
lclavicle 3.75455e-014 2.18663e-014
lhumerus -4.4087 -59.3505 88.7804
lradius 127.268
lwrist -4.47174
lhand -25.2139 13.0024
lfingers 7.12502
lthumb 1.30494 42.9781
rfemur -39.0619 -16.8308 13.5455
rtibia 52.6064
rfoot -19.6164 -13.6073
rtoes -6.82806
lfemur -2.36165 -25.8953 2.4438
ltibia 3.18055e-015
lfoot -12.4397 21.4888
ltoes -15.5674
1911
root -1.32414 14.8778 10.5944 14.948 31.979 1.66187
lowerback 0.98107 3.27643 1.82713
upperback -5.99546 4.36875 -3.08164
thorax -6.4138 2.00362 -4.51992
lowerneck -11.3127 -5.67826 0.544633
upperneck 27.6249 -7.9229 -0.189073
head 10.6974 -3.49011 -1.12018
rclavicle -1.77664e-014 -4.37326e-015
rhumerus 8.52527 5.16425 -90.254
rradius 81.9332
rwrist 10.2009
rhand -47.2177 20.6004
rfingers 7.12502
rthumb -19.9165 -8.39905
lclavicle -1.77664e-014 -4.37326e-015
lhumerus -4.58947 -60.6345 89.469
lradius 127.058
lwrist -4.71199
lhand -24.8159 14.414
lfingers 7.12502
lthumb 1.68933 44.387
rfemur -39.3826 -17.1909 13.914
rtibia 53.275
rfoot -20.3146 -13.8645
rtoes -6.62208
lfemur -2.65511 -25.9641 2.81422
ltibia -3.18055e-014
lfoot -12.5367 21.7537
ltoes -15.3067
1912
root -1.39958 14.8518 10.6444 15.1054 32.3684 1.76776
lowerback 1.08919 3.42516 2.04312
upperback -6.01555 4.57323 -3.23689
thorax -6.45228 2.08876 -4.82391
lowerneck -11.2668 -5.81407 0.570431
upperneck 27.8925 -8.12763 -0.157627
head 10.7883 -3.56668 -1.1423
rclavicle 5.29016e-014 -2.78299e-015
rhumerus 9.93844 5.05761 -91.1637
rradius 79.3497
rwrist 11.6208
rhand -47.4651 20.307
rfingers 7.12502
rthumb -20.1543 -8.6675
lclavicle 5.29016e-014 -2.78299e-015
lhumerus -4.80917 -61.8535 90.145
lradius 126.801
lwrist -4.98649
lhand -24.3212 15.6503
lfingers 7.12502
lthumb 2.16719 45.619
rfemur -39.6669 -17.4673 14.3093
rtibia 53.8599
rfoot -20.9666 -14.1692
rtoes -6.41385
lfemur -2.88336 -25.9787 3.17093
ltibia -6.36111e-015
lfoot -12.7077 21.9532
ltoes -15.0218
1913
root -1.4713 14.827 10.6908 15.2262 32.6984 1.82762
lowerback 1.2244 3.56887 2.29704
upperback -6.03633 4.77422 -3.37793
thorax -6.50328 2.16985 -5.13692
lowerneck -11.2421 -5.92688 0.60486
upperneck 28.1664 -8.30532 -0.117731
head 10.8865 -3.62823 -1.16067
rclavicle 1.881e-014 2.46493e-014
rhumerus 11.207 4.87723 -92.0689
rradius 76.9308
rwrist 12.871
rhand -47.613 20.0806
rfingers 7.12502
rthumb -20.2965 -8.87891
lclavicle 1.881e-014 2.46493e-014
lhumerus -5.01195 -62.9377 90.7653
lradius 126.497
lwrist -5.25788
lhand -23.7777 16.6162
lfingers 7.12502
lthumb 2.69209 46.5789
rfemur -39.946 -17.6638 14.7165
rtibia 54.4077
rfoot -21.5514 -14.4817
rtoes -6.21867
lfemur -3.05073 -25.9381 3.50674
ltibia -3.81667e-014
lfoot -12.935 22.1166
ltoes -14.6956
1914
root -1.53923 14.8037 10.7335 15.3266 32.9653 1.86219
lowerback 1.37417 3.715 2.573
upperback -6.047 4.98052 -3.51514
thorax -6.54734 2.25252 -5.45992
lowerneck -11.2432 -6.02602 0.648556
upperneck 28.4114 -8.47255 -0.0574722
head 10.9801 -3.6819 -1.17254
rclavicle -2.13942e-014 3.57812e-014
rhumerus 12.3023 4.65789 -92.9388
rradius 74.8381
rwrist 13.8609
rhand -47.6882 19.9137
rfingers 7.12502
rthumb -20.3687 -9.03812
lclavicle -2.13942e-014 3.57812e-014
lhumerus -5.1142 -63.8745 91.2572
lradius 126.147
lwrist -5.47183
lhand -23.2335 17.2264
lfingers 7.12502
lthumb 3.21756 47.1819
rfemur -40.2516 -17.7861 15.1073
rtibia 54.9645
rfoot -22.0618 -14.7594
rtoes -6.05089
lfemur -3.16963 -25.8412 3.80671
ltibia -2.54444e-014
lfoot -13.1913 22.239
ltoes -14.3638
1915
root -1.60337 14.7817 10.7725 15.4249 33.1679 1.89583
lowerback 1.53232 3.86225 2.84496
upperback -6.04278 5.18907 -3.64958
thorax -6.57782 2.337 -5.7785
lowerneck -11.2727 -6.11277 0.681751
upperneck 28.6024 -8.63018 0.0360276
head 11.0618 -3.72949 -1.16969
rclavicle 5.79954e-014 2.10712e-014
rhumerus 13.2136 4.47143 -93.728
rradius 73.1871
rwrist 14.4895
rhand -47.7154 19.79
rfingers 7.12502
rthumb -20.3949 -9.15901
lclavicle 5.79954e-014 2.10712e-014
lhumerus -5.10651 -64.6787 91.6013
lradius 125.792
lwrist -5.63466
lhand -22.7388 17.5342
lfingers 7.12502
lthumb 3.69536 47.482
rfemur -40.6032 -17.8461 15.4555
rtibia 55.5608
rfoot -22.5145 -14.9709
rtoes -5.89251
lfemur -3.25332 -25.6891 4.0578
ltibia -1.27222e-014
lfoot -13.4582 22.3082
ltoes -14.0578
1916
root -1.66404 14.7601 10.8081 15.5359 33.3083 1.94729
lowerback 1.66975 4.00079 3.06014
upperback -6.00856 5.38418 -3.75791
thorax -6.57006 2.42024 -6.0337
lowerneck -11.3381 -6.17877 0.689049
upperneck 28.7151 -8.75723 0.144309
head 11.1234 -3.7664 -1.15325
rclavicle 1.54058e-015 -5.1684e-015
rhumerus 13.9659 4.40028 -94.3892
rradius 72.01
rwrist 14.7152
rhand -47.7007 19.8961
rfingers 7.12502
rthumb -20.3808 -9.05439
lclavicle 1.54058e-015 -5.1684e-015
lhumerus -4.87085 -65.132 91.7345
lradius 125.376
lwrist -5.42529
lhand -22.2241 17.0039
lfingers 7.12502
lthumb 4.19237 46.9424
rfemur -41.0065 -17.8571 15.7484
rtibia 56.2053
rfoot -22.9295 -15.113
rtoes -5.74579
lfemur -3.31821 -25.4844 4.25619
ltibia -2.8625e-014
lfoot -13.7122 22.3196
ltoes -13.7942
1917
root -1.72114 14.7386 10.8405 15.6715 33.403 2.03968
lowerback 1.79068 4.13343 3.20184
upperback -5.95096 5.56783 -3.85388
thorax -6.53445 2.50356 -6.2312
lowerneck -11.4126 -6.23481 0.686604
upperneck 28.7363 -8.87204 0.269729
head 11.1538 -3.79985 -1.12589
rclavicle -1.89094e-014 1.59028e-015
rhumerus 14.572 4.42933 -94.9076
rradius 71.281
rwrist 14.5861
rhand -47.6253 20.2319
rfingers 7.12502
rthumb -20.3084 -8.72634
lclavicle -1.89094e-014 1.59028e-015
lhumerus -4.47433 -65.322 91.7039
lradius 124.955
lwrist -4.90482
lhand -21.6827 15.8361
lfingers 7.12502
lthumb 4.71512 45.7636
rfemur -41.4448 -17.855 15.9717
rtibia 56.8865
rfoot -23.33 -15.1864
rtoes -5.6104
lfemur -3.37888 -25.2465 4.39327
ltibia -1.27222e-014
lfoot -13.9359 22.2841
ltoes -13.6047
1918
root -1.77475 14.7173 10.8705 15.834 33.4705 2.18077
lowerback 1.88259 4.22903 3.23556
upperback -5.86567 5.697 -3.90485
thorax -6.47178 2.56822 -6.3131
lowerneck -11.499 -6.25651 0.645392
upperneck 28.6744 -8.92636 0.389075
head 11.1566 -3.81393 -1.08541
rclavicle 1.93815e-014 -2.94201e-014
rhumerus 15.0767 4.66348 -95.2674
rradius 70.909
rwrist 14.1751
rhand -47.5067 20.7019
rfingers 7.12502
rthumb -20.1943 -8.26846
lclavicle 1.93815e-014 -2.94201e-014
lhumerus -3.96947 -65.1909 91.5603
lradius 124.553
lwrist -4.09559
lhand -21.0956 14.1015
lfingers 7.12502
lthumb 5.28207 44.0157
rfemur -41.8934 -17.8659 16.1295
rtibia 57.5806
rfoot -23.7229 -15.2176
rtoes -5.52934
lfemur -3.44431 -24.9936 4.47411
ltibia -9.54166e-015
lfoot -14.1264 22.2043
ltoes -13.4764
1919
root -1.82489 14.6965 10.8985 16.0183 33.5358 2.36847
lowerback 1.95506 4.30311 3.19112
upperback -5.76567 5.79283 -3.94488
thorax -6.39422 2.62153 -6.33505
lowerneck -11.5791 -6.26529 0.629196
upperneck 28.5448 -8.9618 0.491632
head 11.13 -3.82166 -1.05088
rclavicle -9.66342e-014 4.57205e-014
rhumerus 15.4993 4.99118 -95.4999
rradius 70.7868
rwrist 13.6352
rhand -47.3307 21.2486
rfingers 7.12502
rthumb -20.0252 -7.73952
lclavicle -9.66342e-014 4.57205e-014
lhumerus -3.43174 -64.9286 91.3482
lradius 124.233
lwrist -3.1263
lhand -20.4844 12.1427
lfingers 7.12502
lthumb 5.87217 42.0413
rfemur -42.3258 -17.9155 16.2308
rtibia 58.262
rfoot -24.1047 -15.2207
rtoes -5.50504
lfemur -3.5235 -24.7489 4.51192
ltibia -3.81667e-014
lfoot -14.2798 22.0862
ltoes -13.4237
1920
root -1.87183 14.6772 10.9252 16.2181 33.6192 2.59161
lowerback 2.00388 4.33978 3.07696
upperback -5.65583 5.83473 -3.96615
thorax -6.30769 2.65247 -6.29238
lowerneck -11.649 -6.25005 0.644923
upperneck 28.3687 -8.95983 0.56144
head 11.0801 -3.81526 -1.02709
rclavicle 3.65018e-014 -2.3059e-014
rhumerus 15.8716 5.41102 -95.6403
rradius 70.7862
rwrist 13.1358
rhand -47.1358 21.7107
rfingers 7.12502
rthumb -19.8378 -7.29689
lclavicle 3.65018e-014 -2.3059e-014
lhumerus -2.93879 -64.6318 91.1132
lradius 124.045
lwrist -2.22155
lhand -19.9513 10.3954
lfingers 7.12502
lthumb 6.38686 40.2791
rfemur -42.7262 -18.0088 16.2895
rtibia 58.9088
rfoot -24.47 -15.2071
rtoes -5.5204
lfemur -3.62656 -24.5276 4.52551
ltibia 5.40694e-014
lfoot -14.3922 21.942
ltoes -13.4676
1921
root -1.91547 14.6596 10.951 16.4199 33.7357 2.82954
lowerback 2.02446 4.31944 2.90988
upperback -5.53577 5.79817 -3.94892
thorax -6.21265 2.64811 -6.17202
lowerneck -11.7208 -6.19358 0.675068
upperneck 28.1723 -8.88895 0.583963
head 11.0195 -3.78304 -1.01347
rclavicle 5.56597e-015 1.72943e-014
rhumerus 16.2218 5.95164 -95.7109
rradius 70.807
rwrist 12.7949
rhand -46.9624 21.9833
rfingers 7.12502
rthumb -19.6712 -7.04138
lclavicle 5.56597e-015 1.72943e-014
lhumerus -2.5254 -64.3276 90.874
lradius 124.009
lwrist -1.55513
lhand -19.6139 9.14621
lfingers 7.12502
lthumb 6.7125 39.0198
rfemur -43.0815 -18.1518 16.3284
rtibia 59.5049
rfoot -24.804 -15.1941
rtoes -5.60996
lfemur -3.75131 -24.34 4.53731
ltibia -4.13472e-014
lfoot -14.4821 21.7763
ltoes -13.5623
